<svg xmlns="http://www.w3.org/2000/svg" viewBox="0 0 512 512"><!--! Font Awesome Pro 6.7.2 by @fontawesome - https://fontawesome.com License - https://fontawesome.com/license (Commercial License) Copyright 2024 Fonticons, Inc. --><g transform="matrix(1.1,0,0,1.1,0,0)"><path d="M 9.1 74.2 C 9.1 38.9 37.8 10.2 73.1 10.2 l 320 0 c 35.3 0 64 28.7 64 64 l 0 320 c 0 35.3 -28.7 64 -64 64 L 73.1 458.2 c -35.3 0 -64 -28.7 -64 -64 L 9.1 74.2 z m 70.3 55.8 c -9 9.8 -8.3 25 1.5 33.9 L 157.6 234.2 L 80.9 304.5 c -9.8 9 -10.4 24.1 -1.5 33.9 s 24.1 10.4 33.9 1.5 l 96 -88 c 5 -4.5 7.8 -11 7.8 -17.7 s -2.8 -13.1 -7.8 -17.7 l -96 -88 c -9.8 -9 -25 -8.3 -33.9 1.5 z M 225.1 314.2 c -13.3 0 -24 10.7 -24 24 s 10.7 24 24 24 l 144 0 c 13.3 0 24 -10.7 24 -24 s -10.7 -24 -24 -24 l -144 0 z"/></g></svg>